<?xml version="1.0" encoding="UTF-8"?>
<svg id="Layer_1" data-name="Layer 1" xmlns="http://www.w3.org/2000/svg" xmlns:xlink="http://www.w3.org/1999/xlink" viewBox="0 0 115.91 22.11">
  <defs>
    <style>
      .cls-1 {
        fill: url(#linear-gradient-8);
      }

      .cls-2 {
        fill: url(#linear-gradient-7);
      }

      .cls-3 {
        fill: url(#linear-gradient-5);
      }

      .cls-4 {
        fill: url(#linear-gradient-6);
      }

      .cls-5 {
        fill: url(#linear-gradient-9);
      }

      .cls-6 {
        fill: url(#linear-gradient-4);
      }

      .cls-7 {
        fill: url(#linear-gradient-3);
      }

      .cls-8 {
        fill: url(#linear-gradient-2);
      }

      .cls-9 {
        fill: url(#linear-gradient);
      }

      .cls-10 {
        fill: url(#linear-gradient-10);
      }
    </style>
    <linearGradient id="linear-gradient" x1="138.68" y1="-47.35" x2="-103.1" y2="84.83" gradientUnits="userSpaceOnUse">
      <stop offset=".02" stop-color="#ffa3c6"/>
      <stop offset=".51" stop-color="#3381ff"/>
      <stop offset="1" stop-color="#221569"/>
    </linearGradient>
    <linearGradient id="linear-gradient-2" x1="141.45" y1="-42.29" x2="-100.32" y2="89.89" xlink:href="#linear-gradient"/>
    <linearGradient id="linear-gradient-3" x1="142.8" y1="-39.81" x2="-98.98" y2="92.37" xlink:href="#linear-gradient"/>
    <linearGradient id="linear-gradient-4" x1="145.71" y1="-34.48" x2="-96.07" y2="97.7" xlink:href="#linear-gradient"/>
    <linearGradient id="linear-gradient-5" x1="148.97" y1="-28.52" x2="-92.81" y2="103.66" xlink:href="#linear-gradient"/>
    <linearGradient id="linear-gradient-6" x1="152.22" y1="-22.58" x2="-89.56" y2="109.6" xlink:href="#linear-gradient"/>
    <linearGradient id="linear-gradient-7" x1="153.97" y1="-19.37" x2="-87.8" y2="112.81" xlink:href="#linear-gradient"/>
    <linearGradient id="linear-gradient-8" x1="156.72" y1="-14.34" x2="-85.05" y2="117.84" xlink:href="#linear-gradient"/>
    <linearGradient id="linear-gradient-9" x1="5.74" y1="17.42" x2="5.74" y2="-6.06" xlink:href="#linear-gradient"/>
    <linearGradient id="linear-gradient-10" x1="15.92" y1="27.63" x2="9.75" y2="-11.42" xlink:href="#linear-gradient"/>
  </defs>
  <g>
    <path class="cls-9" d="M32.3,17.35c-1.74,0-3.11-.36-4.12-1.09-1-.72-1.55-1.73-1.65-3.03h2.32c.1.77.43,1.33,1,1.69.57.36,1.41.54,2.53.54,1.95,0,2.93-.61,2.93-1.84,0-.5-.15-.89-.45-1.16-.3-.27-.8-.47-1.52-.6l-2.74-.5c-2.33-.43-3.49-1.54-3.49-3.32,0-1.16.44-2.07,1.32-2.74.88-.67,2.08-1,3.59-1s2.82.34,3.75,1.02c.93.68,1.45,1.64,1.58,2.88h-2.28c-.14-.7-.46-1.21-.97-1.55-.51-.33-1.22-.5-2.14-.5-.85,0-1.51.15-1.98.44-.47.29-.7.72-.7,1.27,0,.43.15.77.45,1.01.3.24.78.43,1.45.55l2.74.52c1.23.22,2.12.62,2.7,1.19.57.57.86,1.34.86,2.3,0,1.23-.45,2.18-1.34,2.86-.89.68-2.17,1.02-3.85,1.02Z"/>
    <path class="cls-8" d="M38.99,17.1V6.98h-1.21v-2.42h2.51v1.92h.88c.43-.7,1.02-1.23,1.78-1.6.75-.37,1.64-.55,2.65-.55,1.62,0,2.89.46,3.82,1.39.93.93,1.4,2.16,1.4,3.71v7.67h-2.34v-7.27c0-1.13-.3-1.99-.91-2.57-.61-.59-1.49-.88-2.67-.88s-2.04.29-2.65.88c-.61.58-.92,1.44-.92,2.57v7.27h-2.34Z"/>
    <path class="cls-7" d="M53.94,2.84c-.39,0-.72-.14-1-.42s-.42-.61-.42-1,.14-.72.42-1c.28-.28.61-.42,1-.42s.72.14,1,.42c.28.28.42.61.42,1s-.14.72-.42,1-.61.42-1,.42ZM52.77,17.1V4.56h2.34v12.54h-2.34Z"/>
    <path class="cls-6" d="M57.68,22.11V6.98h-1.21v-2.42h2.51v1.92h.88c.42-.71.99-1.25,1.71-1.62.72-.37,1.59-.55,2.59-.55,1.27,0,2.34.26,3.22.79.88.53,1.55,1.28,2.02,2.26.47.98.7,2.13.7,3.47s-.23,2.49-.69,3.47-1.12,1.73-1.97,2.26c-.86.53-1.88.79-3.06.79-.99,0-1.85-.2-2.59-.6-.74-.4-1.3-.96-1.67-1.68h-.08v7.04h-2.34ZM63.81,15.34c1.25,0,2.23-.4,2.92-1.19.69-.79,1.04-1.9,1.04-3.32s-.35-2.53-1.04-3.32c-.69-.79-1.66-1.19-2.92-1.19-1.14,0-2.06.33-2.75.98-.69.66-1.03,1.53-1.03,2.61v1.84c0,1.09.34,1.96,1.03,2.61.69.66,1.61.98,2.75.98Z"/>
    <path class="cls-3" d="M71.84,22.11V6.98h-1.21v-2.42h2.51v1.92h.88c.42-.71.99-1.25,1.71-1.62.72-.37,1.59-.55,2.59-.55,1.27,0,2.34.26,3.22.79.88.53,1.55,1.28,2.02,2.26.47.98.7,2.13.7,3.47s-.23,2.49-.69,3.47c-.46.98-1.12,1.73-1.97,2.26-.86.53-1.88.79-3.06.79-.99,0-1.85-.2-2.59-.6-.74-.4-1.3-.96-1.67-1.68h-.08v7.04h-2.34ZM77.96,15.34c1.25,0,2.23-.4,2.92-1.19.69-.79,1.04-1.9,1.04-3.32s-.35-2.53-1.04-3.32c-.69-.79-1.66-1.19-2.92-1.19-1.14,0-2.06.33-2.75.98-.69.66-1.03,1.53-1.03,2.61v1.84c0,1.09.34,1.96,1.03,2.61s1.61.98,2.75.98Z"/>
    <path class="cls-4" d="M91.15,17.35c-1.31,0-2.45-.27-3.41-.8-.96-.54-1.7-1.3-2.23-2.29-.52-.99-.78-2.15-.78-3.47s.26-2.47.78-3.44c.52-.97,1.26-1.72,2.2-2.25.95-.53,2.05-.79,3.32-.79s2.26.24,3.15.73c.88.49,1.57,1.18,2.06,2.07.49.89.73,1.95.73,3.18v.94h-9.99c.07,1.31.47,2.33,1.2,3.06s1.71,1.1,2.94,1.1c.85,0,1.57-.18,2.15-.53.59-.35.99-.88,1.21-1.58h2.38c-.31,1.3-.96,2.3-1.97,3.01-1.01.71-2.26,1.07-3.75,1.07ZM87.08,9.51h7.65c-.11-1.03-.49-1.83-1.14-2.4-.65-.57-1.5-.86-2.56-.86s-1.92.29-2.61.86c-.7.57-1.14,1.37-1.34,2.4Z"/>
    <path class="cls-2" d="M101.32,17.1c-.67,0-1.19-.17-1.56-.51-.37-.34-.55-.85-.55-1.54V6.35h-2.34v-1.8h2.36V.79h2.3v3.76h3.28v1.8h-3.26v8.9h3.59v1.84h-3.82Z"/>
    <path class="cls-1" d="M110.73,17.35c-1.74,0-3.11-.36-4.12-1.09-1-.72-1.55-1.73-1.65-3.03h2.32c.1.77.43,1.33,1,1.69.57.36,1.41.54,2.53.54,1.95,0,2.93-.61,2.93-1.84,0-.5-.15-.89-.45-1.16-.3-.27-.8-.47-1.52-.6l-2.74-.5c-2.33-.43-3.49-1.54-3.49-3.32,0-1.16.44-2.07,1.32-2.74.88-.67,2.08-1,3.59-1s2.82.34,3.75,1.02c.93.68,1.45,1.64,1.58,2.88h-2.28c-.14-.7-.46-1.21-.97-1.55-.51-.33-1.22-.5-2.14-.5-.85,0-1.51.15-1.98.44-.47.29-.7.72-.7,1.27,0,.43.15.77.45,1.01.3.24.78.43,1.45.55l2.74.52c1.23.22,2.12.62,2.7,1.19.57.57.86,1.34.86,2.3,0,1.23-.45,2.18-1.34,2.86-.89.68-2.17,1.02-3.85,1.02Z"/>
  </g>
  <g>
    <path class="cls-5" d="M5.74,11.36h0c0-2.12,1.16-3.97,2.87-4.96-.84-.49-1.82-.77-2.87-.77h0c-3.17,0-5.74,2.57-5.74,5.74h0c0,3.17,2.57,5.74,5.74,5.74h5.74c-3.17,0-5.74-2.57-5.74-5.74Z"/>
    <path class="cls-10" d="M12.77,4.32h0c-.93,0-5.72,0-6.53,0,.52.02,1.95.02,3.33.86,1.91,1.1,3.19,3.16,3.19,5.53v6.39h6.39v-6.39c0-3.53-2.86-6.39-6.39-6.39Z"/>
  </g>
</svg>